<?xml version="1.0" encoding="utf-8"?>
<!-- Generator: Adobe Illustrator 23.0.1, SVG Export Plug-In . SVG Version: 6.00 Build 0)  -->
<svg version="1.1" id="Layer_1" xmlns="http://www.w3.org/2000/svg" xmlns:xlink="http://www.w3.org/1999/xlink" x="0px" y="0px"
	 width="1000px" height="1000px" viewBox="0 0 1000 1000" style="enable-background:new 0 0 1000 1000;" xml:space="preserve">
<path d="M647.6,457.8c-1-22.7-11.3-42.8-24.6-60.9c-12.1-16.5-27.6-31.5-36.9-49.9c-2.7-5.4-4.8-11.3-5.1-17.4
	c0,0-21.3-241.7-21.3-241.7c25.3-9.3,5.9-40.9,1.6-51.3c13.1-16,2.6-19.5-2.8-22c-1.8-0.8-3.7-1.3-5.6-1.5
	c-41.5-3.1-63-2.6-107.6,0.4c-5.4,0.4-10.4,3.3-13,8c-2.4,4.4-2.5,9.9,7,14.6c4.3,6.4-32.6,40.6,0.7,52.2l-22.6,244
	c-6.5,41.3-58.5,63.7-63.6,117.1l4.2,483.5c0,0-0.1,22.6,7.2,29.6c32.6,28.5,253.3,24.3,266.3,1.6c9.1-6,11.6-19,12.3-29
	c1.5-22.4,0.2-45,0.4-67.4c0.1-16.3,0.3-32.7,0.4-49c0.2-19.6,0.3-39.2,0.5-58.8c0.2-21.3,0.4-42.7,0.6-64
	c0.2-21.5,0.4-43.1,0.6-64.6c0.2-20.2,0.4-40.3,0.5-60.5c0.3-36.3,0.6-72.5,1-108.8C647.7,460.6,647.7,459.2,647.6,457.8z
	 M500.7,716.6c-63.5,0-115.1-51.5-115.1-115.1s51.5-115.1,115.1-115.1S615.8,538,615.8,601.5S564.3,716.6,500.7,716.6z"/>
</svg>
