<?xml version="1.0" encoding="UTF-8" standalone="no"?>
<!-- Created with Inkscape (http://www.inkscape.org/) -->

<svg
   xmlns:dc="http://purl.org/dc/elements/1.1/"
   xmlns:cc="http://creativecommons.org/ns#"
   xmlns:rdf="http://www.w3.org/1999/02/22-rdf-syntax-ns#"
   xmlns:svg="http://www.w3.org/2000/svg"
   xmlns="http://www.w3.org/2000/svg"
   xmlns:sodipodi="http://sodipodi.sourceforge.net/DTD/sodipodi-0.dtd"
   xmlns:inkscape="http://www.inkscape.org/namespaces/inkscape"
   width="210mm"
   height="297mm"
   viewBox="0 0 210 297"
   version="1.1"
   id="svg21759"
   inkscape:version="0.92.4 (5da689c313, 2019-01-14)"
   sodipodi:docname="pizza 2.svg">
  <defs
     id="defs21753">
    <clipPath
       clipPathUnits="userSpaceOnUse"
       id="clipPath18">
      <path
         d="M 0,800 H 650 V 0 H 0 Z"
         id="path16"
         inkscape:connector-curvature="0" />
    </clipPath>
    <clipPath
       clipPathUnits="userSpaceOnUse"
       id="clipPath6722">
      <path
         d="M 0,800 H 650 V 0 H 0 Z"
         id="path6720"
         inkscape:connector-curvature="0" />
    </clipPath>
    <clipPath
       clipPathUnits="userSpaceOnUse"
       id="clipPath13902">
      <path
         d="M 0,800 H 650 V 0 H 0 Z"
         id="path13900"
         inkscape:connector-curvature="0" />
    </clipPath>
    <clipPath
       clipPathUnits="userSpaceOnUse"
       id="clipPath20442">
      <path
         d="M 0,800 H 650 V 0 H 0 Z"
         id="path20440"
         inkscape:connector-curvature="0" />
    </clipPath>
    <clipPath
       clipPathUnits="userSpaceOnUse"
       id="clipPath20662">
      <path
         d="M 0,800 H 650 V 0 H 0 Z"
         id="path20660"
         inkscape:connector-curvature="0" />
    </clipPath>
    <clipPath
       id="clipPath1014"
       clipPathUnits="userSpaceOnUse">
      <path
         inkscape:connector-curvature="0"
         id="path1012"
         d="M 0,953.303 H 925.484 V 0 H 0 Z" />
    </clipPath>
    <clipPath
       id="clipPath11793"
       clipPathUnits="userSpaceOnUse">
      <path
         inkscape:connector-curvature="0"
         id="path11791"
         d="M 0,833.76 H 1059.617 V 0 H 0 Z" />
    </clipPath>
    <clipPath
       id="clipPath12164"
       clipPathUnits="userSpaceOnUse">
      <path
         inkscape:connector-curvature="0"
         id="path12162"
         d="M 0,1116.228 H 1499.1 V 0 H 0 Z" />
    </clipPath>
  </defs>
  <sodipodi:namedview
     id="base"
     pagecolor="#ffffff"
     bordercolor="#666666"
     borderopacity="1.0"
     inkscape:pageopacity="0.0"
     inkscape:pageshadow="2"
     inkscape:zoom="0.22883835"
     inkscape:cx="-621.21966"
     inkscape:cy="302.35556"
     inkscape:document-units="mm"
     inkscape:current-layer="g1008"
     showgrid="false"
     showguides="false"
     inkscape:guide-bbox="true"
     inkscape:window-width="1920"
     inkscape:window-height="1001"
     inkscape:window-x="-9"
     inkscape:window-y="-9"
     inkscape:window-maximized="1"
     inkscape:snap-global="false">
    <sodipodi:guide
       position="176.69565,253.35726"
       orientation="0,1"
       id="guide22306"
       inkscape:locked="false" />
    <sodipodi:guide
       position="235.5942,43.94019"
       orientation="0,1"
       id="guide22308"
       inkscape:locked="false" />
  </sodipodi:namedview>
  <metadata
     id="metadata21756">
    <rdf:RDF>
      <cc:Work
         rdf:about="">
        <dc:format>image/svg+xml</dc:format>
        <dc:type
           rdf:resource="http://purl.org/dc/dcmitype/StillImage" />
        <dc:title></dc:title>
      </cc:Work>
    </rdf:RDF>
  </metadata>
  <g
     inkscape:label="Layer 1"
     inkscape:groupmode="layer"
     id="layer1">
    <g
       transform="matrix(0.35277777,0,0,-0.35277777,-0.22062239,367.45296)"
       inkscape:label="eyes-line-art-5019556"
       id="g1006">
      <g
         id="g1008">
        <g
           id="g40"
           transform="matrix(2.9639269,0,0,2.9639269,480.72253,693.92827)">
          <path
             d="m 0,0 c 3.607,-8.457 5.413,-17.275 5.413,-26.456 0,-8.456 -1.574,-16.779 -4.724,-24.969 H 0.591 c -4.66,1.848 -7.086,2.873 -7.283,3.072 v 0.198 c 2.623,7.001 3.936,13.773 3.936,20.312 v 2.873 c 0,6.87 -1.542,14.103 -4.626,21.7 C -6.988,-3.007 -4.527,-1.917 0,0 m -21.062,8.62 c 0,-2.576 1.477,-4.393 4.43,-5.449 l 1.18,-0.199 c 2.69,0 4.527,1.452 5.512,4.36 0.065,0.33 0.099,0.66 0.099,0.991 v 1.189 c 0,1.783 -1.181,3.302 -3.544,4.558 -0.983,0.263 -1.707,0.396 -2.165,0.396 -2.429,0 -4.199,-1.355 -5.314,-4.062 -0.133,-0.661 -0.198,-1.256 -0.198,-1.784 m -2.854,-25.762 c 0,-2.444 1.344,-4.228 4.036,-5.35 0.394,-0.133 0.95,-0.199 1.673,-0.199 2.492,0 4.265,1.289 5.314,3.865 0.198,0.263 0.295,0.891 0.295,1.883 0,2.774 -1.542,4.622 -4.625,5.548 h -1.673 c -1.772,0 -3.282,-1.124 -4.527,-3.369 -0.329,-0.99 -0.493,-1.783 -0.493,-2.378 m -0.394,-17.736 c 0,-2.841 1.609,-4.756 4.824,-5.747 h 1.279 c 2.426,0 4.134,1.519 5.118,4.558 0.131,0.397 0.196,0.793 0.196,1.189 0,2.774 -1.608,4.657 -4.823,5.648 h -1.082 c -2.494,0 -4.265,-1.421 -5.314,-4.261 -0.067,-0.727 -0.133,-1.189 -0.198,-1.387 m -5.51,-17.141 c 0,-2.577 1.541,-4.328 4.625,-5.252 l 1.083,-0.198 c 2.559,0 4.394,1.519 5.511,4.558 0.065,0.461 0.099,0.825 0.099,1.089 v 0.1 c 0,2.707 -1.477,4.59 -4.43,5.647 -0.131,0 -0.557,0.033 -1.279,0.099 -2.755,0 -4.626,-1.585 -5.609,-4.755 z m 1.87,98.093 c 7.346,-3.039 13.974,-7.3 19.88,-12.782 4.133,-3.898 7.184,-7.267 9.152,-10.106 3.675,-5.351 6.103,-9.678 7.284,-12.98 -4.2,-1.917 -6.629,-2.94 -7.284,-3.072 -2.297,5.284 -5.609,10.404 -9.939,15.358 -2.625,3.104 -5.185,5.581 -7.677,7.431 -4.266,3.303 -8.301,5.847 -12.106,7.63 -1.706,0.594 -2.558,0.991 -2.558,1.189 1.902,4.69 2.952,7.134 3.149,7.332 z m -5.905,-24.87 c 0,-2.709 1.508,-4.558 4.527,-5.549 l 1.181,-0.198 c 2.623,0 4.461,1.519 5.511,4.558 0.13,0.726 0.197,1.122 0.197,1.189 0,2.641 -1.413,4.491 -4.232,5.549 -0.657,0.132 -1.215,0.198 -1.673,0.198 -2.559,0 -4.365,-1.52 -5.413,-4.558 z m 26.769,-70.945 c 4.658,-1.849 7.086,-2.873 7.283,-3.071 -1.51,-3.701 -3.478,-7.531 -5.905,-11.494 -7.81,-11.561 -17.684,-19.983 -29.624,-25.267 -0.329,0.529 -1.411,3.006 -3.248,7.432 4.001,1.848 7.938,4.161 11.81,6.935 7.152,5.748 12.433,11.758 15.845,18.034 1.64,2.906 2.821,5.35 3.543,7.332 z m -32.281,53.11 c 0,-2.643 1.411,-4.459 4.232,-5.45 0.458,-0.133 0.886,-0.198 1.28,-0.198 h 0.59 c 2.362,0 4.068,1.452 5.118,4.36 0.064,0.33 0.098,0.693 0.098,1.09 v 0.594 c 0,2.509 -1.476,4.26 -4.429,5.252 l -1.279,0.099 c -2.822,0 -4.626,-1.586 -5.414,-4.756 -0.132,-0.067 -0.196,-0.397 -0.196,-0.991 m -1.181,-28.24 v -0.594 c 0,-2.445 1.443,-4.195 4.33,-5.251 0.591,-0.067 1.083,-0.099 1.477,-0.099 2.558,0 4.33,1.486 5.314,4.459 0.066,0.329 0.099,0.659 0.099,0.99 v 0.396 c 0,2.576 -1.444,4.36 -4.331,5.351 -0.329,0.065 -0.656,0.099 -0.985,0.099 h -0.59 c -2.428,0 -4.166,-1.387 -5.216,-4.162 -0.066,-0.463 -0.098,-0.859 -0.098,-1.189 m -1.673,-39.633 c 0,-2.709 1.508,-4.592 4.528,-5.648 0.72,-0.066 1.114,-0.099 1.18,-0.099 2.821,0 4.691,1.618 5.61,4.855 v 1.189 c 0,2.443 -1.477,4.194 -4.429,5.252 l -1.181,0.099 c -3.806,-0.53 -5.708,-2.412 -5.708,-5.648 m -5.314,18.033 c 0,-2.642 1.573,-4.426 4.723,-5.351 0.459,-0.066 0.789,-0.098 0.985,-0.098 2.427,0 4.198,1.353 5.314,4.062 0.197,0.397 0.295,0.957 0.295,1.685 v 0.197 c 0,2.708 -1.574,4.492 -4.723,5.351 -0.46,0.131 -0.788,0.198 -0.985,0.198 -2.821,0 -4.691,-1.619 -5.609,-4.855 z m 15.549,82.538 c 3.804,-1.652 7.807,-3.899 12.007,-6.738 2.23,-1.585 5.315,-4.459 9.251,-8.621 4.986,-6.143 8.071,-11.064 9.251,-14.763 V 5.846 L -52.751,-16.25 c 0,0.065 -0.035,0.099 -0.1,0.099 l 20.668,52.218 z m -26.868,-109.39 c 0.656,-3.633 2.493,-5.449 5.512,-5.449 h 0.591 c 2.492,0 4.197,1.452 5.116,4.359 l 0.197,1.289 c 0,2.707 -1.509,4.558 -4.527,5.548 -0.59,0.132 -1.05,0.198 -1.377,0.198 -2.363,0 -4.101,-1.387 -5.217,-4.161 -0.197,-0.661 -0.295,-1.256 -0.295,-1.784 m -1.476,91.654 c 0,-2.445 1.378,-4.229 4.134,-5.351 0.591,-0.133 1.181,-0.198 1.77,-0.198 2.56,0 4.363,1.519 5.414,4.557 v 1.487 c 0,2.51 -1.475,4.26 -4.429,5.251 -0.459,0 -0.854,0.033 -1.18,0.099 -2.56,0 -4.365,-1.386 -5.414,-4.161 -0.196,-0.396 -0.295,-0.958 -0.295,-1.684 M -9.94,-4.36 h 0.197 c 2.952,-7.267 4.429,-14.664 4.429,-22.195 0,-7.332 -1.346,-14.302 -4.036,-20.906 -34.315,13.804 -51.539,20.708 -51.669,20.708 v 0.397 z m -51.768,-23.483 h 0.197 c 34.183,-13.74 51.407,-20.676 51.67,-20.807 v -0.298 c -2.495,-6.143 -6.431,-12.188 -11.811,-18.133 -5.707,-5.416 -10.334,-8.917 -13.876,-10.502 -2.363,-1.322 -3.741,-1.982 -4.134,-1.982 -13.911,32.366 -21.259,49.607 -22.046,51.722 m -7.382,-29.23 c 0,-2.643 1.345,-4.459 4.036,-5.449 0.787,-0.199 1.344,-0.298 1.673,-0.298 3.739,0.595 5.61,2.477 5.61,5.648 v 0.198 c 0,2.775 -1.542,4.623 -4.625,5.549 -0.33,0 -0.658,0.032 -0.985,0.099 -3.806,-0.594 -5.709,-2.511 -5.709,-5.747 m -0.59,58.956 c 0,-2.577 1.345,-4.426 4.035,-5.549 0.394,-0.133 0.951,-0.199 1.673,-0.199 2.56,0 4.364,1.388 5.413,4.162 0.131,0.726 0.197,1.288 0.197,1.684 0,2.379 -1.345,4.162 -4.034,5.351 l -1.28,0.198 h -0.493 c -2.755,0 -4.56,-1.552 -5.412,-4.656 0,-0.199 -0.033,-0.53 -0.099,-0.991 m -7.578,-75.206 c 0,-2.511 1.477,-4.26 4.429,-5.251 0.458,-0.067 0.886,-0.099 1.279,-0.099 2.69,0 4.493,1.551 5.413,4.656 0.066,0.264 0.099,0.627 0.099,1.09 0,2.642 -1.378,4.492 -4.134,5.549 -0.329,0.065 -0.688,0.1 -1.082,0.1 h -0.788 c -2.559,0 -4.298,-1.586 -5.216,-4.757 z m -0.787,91.951 v -0.397 c 0,-2.643 1.575,-4.426 4.724,-5.35 0.591,-0.067 0.919,-0.099 0.984,-0.099 3.74,0.659 5.61,2.477 5.61,5.449 v 0.496 c 0,2.641 -1.543,4.425 -4.627,5.35 l -1.082,0.099 c -2.69,0 -4.527,-1.486 -5.511,-4.458 -0.067,-0.331 -0.098,-0.694 -0.098,-1.09 m 15.058,-47.264 c 0.328,-0.331 4.001,-8.852 11.022,-25.563 7.349,-17.043 11.024,-25.697 11.024,-25.961 -7.087,-2.972 -14.436,-4.458 -22.046,-4.458 -7.218,0 -14.14,1.32 -20.767,3.963 v 0.099 l 20.569,51.92 z m -0.787,60.145 h 1.378 c 6.691,0 13.384,-1.322 20.077,-3.964 V 27.446 C -54.721,-3.733 -61.577,-21.073 -62.89,-24.573 h -0.097 c -0.329,0.263 -4.299,9.512 -11.909,27.744 -3.806,8.586 -7.218,16.513 -10.235,23.78 1.114,0.793 4.362,1.882 9.743,3.27 4.068,0.857 7.938,1.288 11.614,1.288 m 23.915,-114.146 c 2.099,-4.691 3.149,-7.168 3.149,-7.431 -8.399,-3.634 -17.257,-5.45 -26.572,-5.45 -8.007,0 -16.142,1.586 -24.408,4.756 v 0.199 c 1.706,4.424 2.69,6.836 2.953,7.233 h 0.097 c 7.284,-2.643 14.173,-3.964 20.668,-3.964 h 2.067 c 7.02,0 14.37,1.552 22.046,4.657 m -48.815,75.998 c 0,-2.907 1.737,-4.756 5.216,-5.549 h 0.492 c 2.624,0 4.429,1.453 5.412,4.36 0.065,0.33 0.1,0.66 0.1,0.991 v 0.694 c 0,2.509 -1.444,4.226 -4.331,5.152 -0.196,0.065 -0.591,0.132 -1.181,0.198 -2.625,0 -4.463,-1.387 -5.512,-4.161 -0.132,-0.397 -0.196,-0.959 -0.196,-1.685 m -0.493,-40.426 c 0,-2.709 1.443,-4.558 4.331,-5.549 0.591,-0.067 0.984,-0.133 1.181,-0.198 2.82,0 4.724,1.551 5.708,4.657 0,0.065 0.064,0.461 0.197,1.189 0,2.576 -1.51,4.424 -4.526,5.549 l -1.478,0.098 c -2.428,0 -4.199,-1.486 -5.313,-4.458 z m 26.18,89.374 h 0.097 c 8.595,0 16.764,-1.585 24.507,-4.756 v -0.099 c -1.903,-4.624 -2.854,-7.035 -2.854,-7.233 h -0.198 c -7.414,2.641 -14.697,3.963 -21.847,3.963 -7.481,0 -15.124,-1.52 -22.932,-4.558 -2.1,4.492 -3.149,6.902 -3.149,7.233 v 0.199 c 8.594,3.5 17.385,5.251 26.376,5.251 M -93.891,-65.297 c 0,-2.642 1.509,-4.426 4.528,-5.35 0.327,-0.067 0.721,-0.1 1.18,-0.1 2.69,0 4.528,1.487 5.512,4.459 0,0.528 0.066,0.924 0.197,1.189 -0.656,3.766 -2.526,5.648 -5.61,5.648 h -0.197 c -2.691,0 -4.494,-1.421 -5.412,-4.26 -0.133,-0.332 -0.198,-0.86 -0.198,-1.586 m -0.295,77.385 v -0.594 c 0,-2.445 1.442,-4.196 4.331,-5.252 0.459,-0.066 0.885,-0.099 1.279,-0.099 h 0.098 c 2.624,0 4.461,1.453 5.512,4.359 0.065,0.462 0.099,0.826 0.099,1.091 v 0.297 c 0,2.708 -1.445,4.524 -4.33,5.449 -0.33,0.065 -0.657,0.1 -0.986,0.1 h -0.688 c -2.429,0 -4.133,-1.454 -5.117,-4.36 -0.133,-0.331 -0.198,-0.661 -0.198,-0.991 m -3.543,-40.228 v -0.198 c 0,-2.643 1.411,-4.459 4.232,-5.45 0.262,-0.133 0.591,-0.198 0.984,-0.198 h 0.886 c 2.362,0 4.035,1.452 5.02,4.36 0.065,0.329 0.098,0.659 0.098,0.99 v 0.694 c 0,2.311 -1.313,3.996 -3.936,5.053 -0.591,0.198 -1.182,0.298 -1.773,0.298 -2.625,0 -4.428,-1.487 -5.413,-4.459 -0.065,-0.331 -0.098,-0.694 -0.098,-1.09 m -8.661,27.05 v -0.199 c 0,-2.709 1.477,-4.524 4.429,-5.449 0.458,-0.067 0.819,-0.099 1.082,-0.099 2.821,0 4.691,1.486 5.611,4.459 0.065,0.33 0.098,0.66 0.098,0.991 v 0.495 c 0,2.443 -1.411,4.194 -4.231,5.252 -0.329,0.064 -0.658,0.098 -0.985,0.098 h -0.886 c -2.362,0 -4.035,-1.453 -5.019,-4.359 -0.066,-0.396 -0.099,-0.793 -0.099,-1.189 m -0.787,-52.218 c 0,-2.576 1.41,-4.359 4.232,-5.351 0.458,-0.197 0.984,-0.296 1.575,-0.296 2.558,0 4.33,1.452 5.314,4.359 0.131,0.66 0.229,1.09 0.295,1.288 0,2.839 -1.574,4.756 -4.723,5.747 -0.264,0 -0.624,0.033 -1.083,0.1 -2.494,0 -4.266,-1.422 -5.315,-4.261 -0.197,-0.332 -0.295,-0.859 -0.295,-1.586 m -6.693,35.373 c 0,-2.576 1.312,-4.426 3.938,-5.548 0.393,-0.133 0.95,-0.199 1.673,-0.199 h 0.491 c 2.296,0 3.97,1.354 5.02,4.063 0.196,0.66 0.296,1.254 0.296,1.784 0,2.311 -1.315,4.062 -3.938,5.251 -0.656,0.132 -1.247,0.198 -1.771,0.198 h -0.098 c -2.495,0 -4.299,-1.421 -5.414,-4.26 -0.066,-0.728 -0.132,-1.157 -0.197,-1.289 m -0.885,-17.934 c 0,-2.841 1.575,-4.756 4.724,-5.747 h 1.772 c 1.508,0 2.886,0.957 4.133,2.874 0.525,0.991 0.787,1.915 0.787,2.774 0,2.641 -1.412,4.491 -4.231,5.549 -0.329,0.131 -0.854,0.198 -1.576,0.198 -2.494,0 -4.265,-1.421 -5.313,-4.261 z m 50.39,8.026 c 0,-0.067 0.032,-0.099 0.098,-0.099 L -84.935,-80.16 h -0.294 c -4.003,1.519 -8.728,4.36 -14.172,8.522 -4.594,4.028 -7.973,7.562 -10.138,10.602 -2.888,4.226 -4.955,7.828 -6.2,10.8 v 0.198 z m -22.144,54.299 c 0.327,-0.463 7.709,-17.704 22.144,-51.723 h -0.198 c -34.446,13.739 -51.668,20.709 -51.668,20.907 5.839,14.135 15.747,24.407 29.722,30.816 m -30.214,-32.203 c 5.969,-2.313 23.193,-9.215 51.669,-20.709 v -0.297 l -51.177,-22.096 c -2.953,6.936 -4.428,14.234 -4.428,21.898 v 0.396 c 0,7.2 1.278,14.135 3.837,20.808 z m -1.477,-45.48 c 1.902,-4.493 4.592,-8.917 8.071,-13.277 4.526,-5.286 8.201,-8.886 11.023,-10.8 6.362,-4.229 10.004,-6.342 10.923,-6.342 l 2.068,-1.09 c -0.723,-2.246 -1.707,-4.756 -2.952,-7.53 -16.995,7.332 -29.166,19.287 -36.514,35.868 v 0.1 c 4.725,2.047 7.184,3.071 7.381,3.071 m 27.557,87.591 h 0.098 c 0,-0.133 1.018,-2.544 3.052,-7.234 -4.987,-2.245 -9.907,-5.417 -14.763,-9.511 -4.659,-4.229 -7.873,-7.729 -9.645,-10.503 -2.558,-3.7 -4.691,-7.498 -6.397,-11.395 -0.197,-0.728 -0.46,-1.09 -0.788,-1.09 -3.936,1.585 -6.332,2.576 -7.185,2.973 v 0.099 c 2.428,6.473 6.694,13.243 12.795,20.312 5.512,5.614 9.645,9.148 12.401,10.602 4.134,2.84 7.611,4.756 10.432,5.747 m -36.021,-38.148 c 4.592,-1.718 7.02,-2.709 7.283,-2.972 -2.691,-7.332 -4.035,-14.566 -4.035,-21.7 0,-7.664 1.541,-15.491 4.626,-23.482 v -0.1 l -7.381,-3.072 c -3.543,8.522 -5.315,17.405 -5.315,26.654 0,8.587 1.575,16.81 4.724,24.672 z"
             style="fill:#231f20;fill-opacity:1;fill-rule:nonzero;stroke:none"
             id="path42"
             inkscape:connector-curvature="0" />
        </g>
      </g>
    </g>
  </g>
</svg>
