<?xml version="1.0" standalone="no"?>
<!DOCTYPE svg PUBLIC "-//W3C//DTD SVG 20010904//EN"
 "http://www.w3.org/TR/2001/REC-SVG-20010904/DTD/svg10.dtd">
<svg version="1.0" xmlns="http://www.w3.org/2000/svg"
 width="1169.000000pt" height="826.000000pt" viewBox="0 0 1169.000000 826.000000"
 preserveAspectRatio="xMidYMid meet">

<g transform="translate(0.000000,826.000000) scale(0.100000,-0.100000)"
fill="#000000" stroke="none">
<path d="M3895 4969 c-1775 -137 -2928 -338 -3332 -581 -67 -40 -139 -117
-148 -158 -31 -141 195 -272 683 -394 193 -48 514 -114 712 -145 286 -46 381
-61 485 -76 61 -9 116 -18 123 -20 9 -3 6 -18 -13 -55 -68 -134 -156 -377
-200 -551 -26 -100 -65 -283 -65 -300 0 -6 108 -8 256 -7 l256 3 38 150 c56
222 151 486 232 648 l29 58 47 -6 c26 -3 166 -17 311 -30 l264 -24 38 42 c21
23 38 45 39 48 0 4 -30 9 -67 12 -38 4 -176 16 -308 27 -132 12 -246 23 -253
26 -18 6 32 97 153 279 248 374 551 720 853 973 56 47 102 87 102 89 0 5 -115
1 -235 -8z m-765 -395 c0 -3 -35 -45 -79 -93 -158 -177 -325 -398 -469 -621
-45 -69 -87 -133 -94 -142 -12 -16 -24 -15 -193 7 -961 126 -1605 296 -1605
422 0 7 14 28 31 48 163 185 1216 359 2317 383 50 1 92 -1 92 -4z"/>
<path d="M5895 4261 l-79 -6 -7 -32 c-6 -32 -6 -33 28 -33 22 0 36 -6 40 -17
4 -9 -25 -176 -62 -371 l-69 -354 -76 6 c-41 3 -141 8 -222 12 -139 6 -148 8
-148 27 0 18 95 523 105 557 4 12 18 14 72 10 l68 -5 3 -33 c2 -18 -1 -53 -6
-78 l-10 -44 72 0 71 0 23 123 c12 67 22 128 22 135 0 10 -81 12 -387 10
l-387 -3 -23 -110 c-33 -165 -36 -155 47 -155 55 0 70 3 70 15 0 24 20 109 30
125 11 17 150 32 150 15 0 -15 -109 -567 -112 -570 -2 -1 -176 9 -388 21 -212
13 -392 23 -400 23 -9 1 -38 -19 -65 -43 l-50 -43 70 -7 c179 -16 996 -50
1610 -68 597 -16 2991 -17 3455 0 841 30 1329 56 1796 98 66 6 105 17 94 27
-3 2 -61 -2 -130 -8 -69 -7 -152 -14 -185 -16 -67 -4 -63 -12 -50 84 l6 47
189 0 188 0 11 33 c29 94 23 205 -13 260 -11 18 -43 43 -70 56 -67 33 -178 34
-253 1 -67 -29 -145 -111 -183 -192 -32 -69 -60 -192 -60 -261 l0 -44 -46 -7
c-26 -3 -65 -6 -88 -6 l-41 0 -52 125 c-29 68 -53 130 -53 138 0 20 163 175
191 181 13 3 33 7 44 8 13 2 21 12 23 31 l3 27 -149 0 c-127 0 -151 -2 -156
-16 -11 -29 -6 -43 16 -46 12 -2 23 -8 25 -14 2 -6 -37 -58 -86 -115 -50 -57
-91 -109 -91 -116 0 -6 19 -55 42 -108 34 -80 39 -98 27 -106 -12 -8 -139 -13
-139 -6 0 1 13 70 29 152 71 360 131 673 131 684 0 9 -32 10 -137 5 -76 -4
-138 -7 -139 -8 -1 0 -4 -16 -7 -33 -6 -33 -6 -33 34 -33 28 0 42 -5 46 -17 5
-12 -98 -578 -134 -740 -5 -22 -10 -23 -84 -23 -43 0 -79 1 -79 3 0 1 7 24 15
51 8 27 15 53 15 58 0 4 -26 8 -58 8 l-58 0 -25 -62 -24 -63 -99 0 -100 0 -8
30 c-11 38 6 175 32 258 40 131 104 194 184 184 53 -7 68 -29 64 -95 l-3 -52
66 0 66 0 17 97 c16 92 16 98 0 110 -30 22 -125 35 -228 31 -86 -3 -110 -8
-158 -31 -139 -68 -232 -258 -227 -461 l2 -81 -76 -3 c-43 -2 -77 0 -77 3 0 3
6 18 14 33 36 71 36 72 -51 72 l-78 0 -25 -53 -25 -52 -78 -3 c-76 -3 -77 -3
-88 25 -10 27 -6 134 7 168 5 13 36 15 194 15 l188 0 11 50 c32 147 3 254 -80
298 -39 21 -54 23 -139 20 -82 -3 -102 -8 -148 -33 -29 -16 -69 -47 -89 -68
-83 -92 -146 -312 -124 -430 l8 -47 -102 0 -102 0 38 78 c76 155 91 351 31
431 -39 53 -79 71 -156 71 -79 0 -132 -20 -180 -64 -15 -15 -30 -25 -32 -23
-2 2 13 90 35 196 l39 193 -132 -7 c-78 -5 -134 -12 -138 -19 -4 -6 -8 -21 -8
-33 0 -17 7 -22 32 -25 23 -2 34 -9 37 -23 2 -10 -30 -190 -70 -399 l-73 -379
-200 7 c-110 3 -201 7 -202 9 -4 4 33 190 49 244 27 92 80 173 112 173 29 0
45 -13 45 -37 0 -23 2 -24 67 -21 l67 3 18 85 c26 127 28 120 -42 120 -79 0
-118 -17 -186 -82 -37 -35 -55 -46 -51 -33 3 11 9 42 13 69 6 44 5 48 -12 43
-11 -3 -70 -9 -131 -12 -74 -5 -113 -11 -113 -19 0 -6 -3 -20 -6 -32 -5 -18
-1 -21 27 -22 17 0 36 -5 42 -11 6 -6 -4 -76 -28 -203 -21 -106 -40 -209 -44
-228 -7 -35 -7 -35 -66 -38 -33 -2 -83 -1 -112 3 l-52 6 30 47 c76 119 92 308
36 405 -49 82 -157 124 -278 106 -195 -30 -342 -242 -326 -473 l5 -78 -101 7
c-56 4 -103 8 -104 9 -2 1 11 69 27 152 41 204 46 270 27 316 -20 49 -62 69
-141 70 -67 0 -117 -19 -175 -67 -17 -15 -31 -25 -31 -22 0 2 16 85 35 183 19
99 35 185 35 192 0 13 -34 13 -185 3z m3133 -399 c12 -16 16 -110 6 -149 -6
-22 -11 -23 -105 -23 -80 0 -99 3 -99 15 0 30 41 122 64 144 42 40 107 46 134
13z m2062 2 c10 -10 14 -33 13 -73 -2 -103 0 -101 -114 -101 -61 0 -99 4 -99
10 0 23 41 124 57 143 40 45 108 55 143 21z m-4154 -5 c42 -46 19 -282 -39
-399 l-22 -45 -88 0 c-67 0 -90 4 -97 15 -24 38 4 248 45 338 36 79 76 112
135 112 35 0 52 -5 66 -21z m-768 -11 c19 -19 13 -112 -17 -263 l-28 -140 -96
-3 c-113 -3 -106 -13 -81 119 29 157 67 249 116 284 27 18 89 20 106 3z m2142
-13 c31 -33 37 -109 16 -214 -21 -102 -45 -159 -86 -199 -28 -29 -38 -32 -89
-32 -45 0 -62 4 -76 20 -60 67 10 377 98 431 46 28 108 25 137 -6z"/>
</g>
</svg>
